<?xml version="1.0" standalone="no"?><!DOCTYPE svg PUBLIC "-//W3C//DTD SVG 1.1//EN" "http://www.w3.org/Graphics/SVG/1.1/DTD/svg11.dtd"><svg t="1551772121485" class="icon" style="" viewBox="0 0 1024 1024" version="1.1" xmlns="http://www.w3.org/2000/svg" p-id="3649" xmlns:xlink="http://www.w3.org/1999/xlink" width="400" height="400"><defs><style type="text/css"></style></defs><path d="M567.921294 591.17263C593.6128 572.986826 608.953191 543.388868 608.953191 512s-15.340391-60.986826-41.031897-79.17263c-7.041634-4.984919-8.930587-14.519013-4.527388-21.785055a112.428664 112.428664 0 0 0-35.05348-11.148528v224.208068a112.428664 112.428664 0 0 0 35.05348-11.148527 16.325174 16.325174 0 0 1 4.527388-21.780698z" fill="#F2484B" p-id="3650"></path><path d="M573.04783 735.306077c100.354179-27.467166 170.441532-119.293821 170.441532-223.306077 0-104.010077-70.087353-195.836732-170.441532-223.303898-8.531881-2.335591-13.606128-11.017804-11.560307-19.5584a247.200136 247.200136 0 0 0-33.147097-4.416272v135.172357a112.428664 112.428664 0 0 1 35.05348 11.148528c0.202621-0.333345 0.400885-0.671047 0.629651-0.993498a16.340426 16.340426 0 0 1 22.778554-3.897736C621.136613 430.456919 641.634043 470.024715 641.634043 512s-20.49743 81.543081-54.831932 105.84674a16.270706 16.270706 0 0 1-9.427337 3.00446 16.320817 16.320817 0 0 1-13.351217-6.900017c-0.228766-0.322451-0.42703-0.660153-0.629651-0.993498a112.428664 112.428664 0 0 1-35.05348 11.148528v135.172357a246.849362 246.849362 0 0 0 33.147097-4.416272c-2.045821-8.540596 3.028426-17.22063 11.560307-19.556221z" fill="#FF6E1D" p-id="3651"></path><path d="M247.975762 495.659574c1.51857-95.767966 16.368749-187.069549 42.796664-265.407727a511.426996 511.426996 0 0 1-106.071149-68.07857C94.920443 246.224068 37.413038 364.32177 32.99023 495.659574h214.985532zM302.04514 199.412017c6.207183-15.712953 12.904579-30.818043 20.096545-45.204153 23.118434-46.239047 50.069243-82.802383 79.595302-108.707404-71.520953 16.902536-136.895728 49.873157-192.1024 94.87251a478.726536 478.726536 0 0 0 92.410553 59.039047zM495.659574 990.096885v-213.619472a478.961838 478.961838 0 0 0-163.752851 34.792034c6.002383 15.290281 12.490621 29.957447 19.466894 43.905634 39.872817 79.745634 90.593498 126.938962 144.285957 134.921804zM184.701277 861.826723a511.311523 511.311523 0 0 1 106.071149-68.07857c-26.427915-78.338179-41.275915-169.639762-42.796664-265.407727H32.99023c4.422809 131.337804 61.930213 249.435506 151.711047 333.486297zM495.659574 743.781311V528.340426h-214.998604c1.488068 91.155609 15.39486 177.842655 40.119013 252.17634a511.592579 511.592579 0 0 1 174.879591-36.735455zM351.373617 168.82274c-6.974094 13.948187-13.464511 28.617532-19.466894 43.905634a478.961838 478.961838 0 0 0 163.752851 34.792035V33.903115c-53.69246 7.982843-104.41314 55.17617-144.285957 134.919625zM322.141685 869.792136c-7.194145-14.386111-13.89154-29.489021-20.096545-45.204153A478.80497 478.80497 0 0 0 209.636766 883.624851c55.206672 45.001532 120.579268 77.972153 192.1024 94.872511-29.52606-25.902843-56.476868-62.468357-79.597481-108.705226zM495.659574 495.659574v-215.440885a511.666655 511.666655 0 0 1-174.88177-36.735455c-24.724153 74.331506-38.630945 161.020732-40.119013 252.17634H495.659574z" fill="#6DA8D6" p-id="3652"></path><path d="M574.888851 921.1904C775.03074 890.561906 925.957447 714.647421 925.957447 512S775.03074 133.438094 574.888851 102.8096c-8.804221-1.346451-14.871966-9.490519-13.715064-18.281668-10.830434-1.237515-21.778519-2.069787-32.833361-2.485923v182.679421a246.849362 246.849362 0 0 1 33.147097 4.416272c0.041396-0.172119 0.06754-0.344238 0.113294-0.516357 2.383523-8.704 11.370757-13.837072 20.074757-11.447013 114.515881 31.345294 194.494638 136.133174 194.494639 254.825668 0 118.694672-79.978757 223.482553-194.494639 254.825668a16.394894 16.394894 0 0 1-4.322587 0.583898 16.344783 16.344783 0 0 1-15.749991-12.030911c-0.047932-0.172119-0.071898-0.346417-0.113294-0.518536a247.200136 247.200136 0 0 1-33.147098 4.416272v182.679422c11.054843-0.413957 22.005106-1.248409 32.833362-2.485924-1.159081-8.78897 4.908664-16.933038 13.712885-18.279489z" fill="#FFCC75" p-id="3653"></path><path d="M528.340426 32.99023v49.053957c11.054843 0.413957 22.005106 1.248409 32.833361 2.485924 0.015251-0.115472 0.01743-0.228766 0.03486-0.344239a16.331711 16.331711 0 0 1 18.623727-13.680204c104.321634 15.965685 200.115745 68.993634 269.730315 149.320987C919.900596 300.984102 958.638298 404.747983 958.638298 512s-38.737702 211.015898-109.07343 292.175523c-69.61457 80.325174-165.406502 133.355302-269.730315 149.320988a16.342604 16.342604 0 0 1-18.623727-13.680205c-0.01743-0.115472-0.019609-0.228766-0.03486-0.344238-10.830434 1.237515-21.778519 2.069787-32.833362 2.485923v49.053958C785.098621 982.362417 991.319149 770.825804 991.319149 512S785.098621 41.637583 528.340426 32.99023z" fill="#185F8D" p-id="3654"></path><path d="M874.038468 149.961532C777.33583 53.256715 648.760647 0 512 0S246.66417 53.256715 149.961532 149.961532C53.256715 246.66417 0 375.239353 0 512s53.256715 265.33583 149.961532 362.038468C246.66417 970.743285 375.239353 1024 512 1024s265.33583-53.256715 362.038468-149.961532C970.743285 777.33583 1024 648.760647 1024 512s-53.256715-265.33583-149.961532-362.038468zM495.659574 247.520409a478.961838 478.961838 0 0 1-163.752851-34.792035c6.002383-15.290281 12.490621-29.957447 19.466894-43.905634 39.872817-79.743455 90.593498-126.936783 144.285957-134.921804v213.619473z m0 32.69828V495.659574h-214.998604c1.488068-91.155609 15.39486-177.842655 40.119013-252.17634a511.592579 511.592579 0 0 0 174.879591 36.735455z m0 248.121737v215.440885a511.666655 511.666655 0 0 0-174.88177 36.735455c-24.724153-74.331506-38.630945-161.020732-40.119013-252.17634H495.659574z m0 248.139165v213.619473c-53.69246-7.985021-104.41314-55.178349-144.285957-134.921804-6.974094-13.948187-13.464511-28.617532-19.466894-43.905634a478.909549 478.909549 0 0 1 163.752851-34.792035zM322.141685 154.207864c-7.194145 14.386111-13.89154 29.489021-20.096545 45.204153A478.80497 478.80497 0 0 1 209.636766 140.375149c55.206672-45.001532 120.579268-77.972153 192.1024-94.872511-29.52606 25.902843-56.476868 62.468357-79.597481 108.705226z m-137.440408 7.965413a511.311523 511.311523 0 0 0 106.071149 68.07857c-26.427915 78.338179-41.275915 169.639762-42.796664 265.407727H32.99023c4.422809-131.337804 61.930213-249.435506 151.711047-333.486297zM247.975762 528.340426c1.51857 95.767966 16.368749 187.069549 42.796664 265.407727a511.426996 511.426996 0 0 0-106.071149 68.07857C94.920443 777.775932 37.413038 659.67823 32.99023 528.340426h214.985532z m54.069378 296.247557c6.207183 15.712953 12.904579 30.818043 20.096545 45.204153 23.118434 46.239047 50.069243 82.802383 79.595302 108.707404-71.520953-16.902536-136.895728-49.873157-192.1024-94.87251a478.726536 478.726536 0 0 1 92.410553-59.039047zM528.340426 991.00977V32.99023C785.098621 41.637583 991.319149 253.174196 991.319149 512s-206.220528 470.362417-462.978723 479.00977z" fill="#082947" p-id="3655"></path><path d="M574.888851 102.8096C775.03074 133.438094 925.957447 309.352579 925.957447 512s-150.926706 378.561906-351.068596 409.1904c-8.804221 1.346451-14.871966 9.490519-13.715064 18.281668 0.015251 0.115472 0.01743 0.228766 0.03486 0.344238a16.342604 16.342604 0 0 0 18.623727 13.680205c104.321634-15.965685 200.115745-68.993634 269.730315-149.320988C919.900596 723.015898 958.638298 619.252017 958.638298 512s-38.737702-211.015898-109.07343-292.175523c-69.61457-80.325174-165.406502-133.355302-269.730315-149.320988a16.331711 16.331711 0 0 0-18.623727 13.680205c-0.01743 0.115472-0.019609 0.228766-0.03486 0.344238-1.159081 8.791149 4.908664 16.935217 13.712885 18.281668z" fill="#082947" p-id="3656"></path><path d="M573.04783 288.696102c100.354179 27.467166 170.441532 119.293821 170.441532 223.303898s-70.087353 195.836732-170.441532 223.306077c-8.531881 2.335591-13.606128 11.015626-11.560307 19.556221 0.041396 0.172119 0.06754 0.346417 0.113294 0.518536a16.346962 16.346962 0 0 0 15.749992 12.030911 16.384 16.384 0 0 0 4.322587-0.583898c114.515881-31.345294 194.494638-136.133174 194.494638-254.825668s-79.978757-223.480374-194.494638-254.825668c-8.704-2.39006-17.691234 2.743013-20.074758 11.447012-0.047932 0.172119-0.071898 0.344238-0.113293 0.516358-2.043643 8.538417 3.030604 17.22063 11.562485 19.556221z" fill="#082947" p-id="3657"></path><path d="M567.921294 432.82737C593.6128 451.013174 608.953191 480.611132 608.953191 512s-15.340391 60.986826-41.031897 79.17263c-7.041634 4.984919-8.930587 14.519013-4.527388 21.785055 0.202621 0.333345 0.400885 0.671047 0.629651 0.993498a16.320817 16.320817 0 0 0 13.351217 6.900017 16.275064 16.275064 0 0 0 9.427337-3.00446C621.136613 593.543081 641.634043 553.975285 641.634043 512s-20.49743-81.543081-54.831932-105.84674a16.340426 16.340426 0 0 0-22.778554 3.897736c-0.228766 0.322451-0.42703 0.660153-0.629651 0.993498-4.4032 7.263864-2.514247 16.797957 4.527388 21.782876z" fill="#082947" p-id="3658"></path></svg>