<?xml version="1.0" standalone="no"?><!DOCTYPE svg PUBLIC "-//W3C//DTD SVG 1.1//EN" "http://www.w3.org/Graphics/SVG/1.1/DTD/svg11.dtd"><svg t="1553154203621" class="icon" style="" viewBox="0 0 1024 1024" version="1.1" xmlns="http://www.w3.org/2000/svg" p-id="806" xmlns:xlink="http://www.w3.org/1999/xlink" width="400" height="400"><defs><style type="text/css"></style></defs><path d="M512 512m-512 0a512 512 0 1 0 1024 0 512 512 0 1 0-1024 0Z" fill="#FD846F" p-id="807"></path><path d="M646.339048 374.954667c0 75.897905-61.318095 136.777143-137.801143 136.777143s-137.825524-60.879238-137.825524-136.777143c0-75.922286 61.342476-136.021333 137.825524-136.021334 76.483048 0 137.825524 60.099048 137.825524 136.021334z m82.724571 417.401904H281.112381c-19.69981 0-28.550095-14.628571-28.550095-34.108952 0-115.95581 85.650286-207.530667 199.850666-207.530667h105.325715c114.200381 0 213.625905 92.550095 213.625904 208.505905v-1.950476c0.975238 19.504762-22.649905 34.108952-42.325333 35.08419z" fill="#FFFFFF" p-id="808"></path></svg>